# xmcd CD database file
#
# Track frame offsets:
#	150
#	27242
#	40970
#	51829
#	69979
#	92869
#	106003
#	119225
#	135640
#	160432
#	181949
#	197233
#	214173
#	235048
#	255441
#
# Disc length: 3487 seconds
#
# Revision: 1
# Processed by: cddbd v1.5.1PL0 Copyright (c) Steve Scherf et al.
# Submitted via: CDex 1.50
#
DISCID=d40d9d0f
DTITLE=Chie Ayado - Life
DYEAR=1900
DGENRE=Jazz
TTITLE0=New York State of Mind
TTITLE1=Amazing Grace
TTITLE2=Bye Bye Blackbird
TTITLE3=Tennessee Waltz
TTITLE4=You've Got A Friend
TTITLE5=Love Letters
TTITLE6=Route 66
TTITLE7=I Could Have Dance All Night
TTITLE8=Mr. Bojangles
TTITLE9=Everything Must Change
TTITLE10=For Once In My Live
TTITLE11=Fever
TTITLE12=Yozora No Mukou
TTITLE13=Let It Be
TTITLE14=Oh, My Darling Clementine
EXTD=
EXTT0=
EXTT1=
EXTT2=
EXTT3=
EXTT4=
EXTT5=
EXTT6=
EXTT7=
EXTT8=
EXTT9=
EXTT10=
EXTT11=
EXTT12=
EXTT13=
EXTT14=
PLAYORDER=
